<svg width="158" height="220" viewBox="0 0 158 220" fill="none" xmlns="http://www.w3.org/2000/svg">
<g id="Group">
<g id="Food">
<path id="Path" d="M127.572 215.464H30.4282C27.6 215.464 25.2536 213.283 25.0798 210.479L14.6714 45.3608H143.329L132.924 210.479C132.741 213.289 130.397 215.472 127.572 215.464Z" fill="#DCDCDC"/>
<path id="Path_2" d="M116.97 207.526H112.461C110.81 207.526 109.471 206.355 109.471 204.911C109.471 203.467 110.81 202.296 112.461 202.296H116.97C117.494 202.297 117.93 201.942 117.966 201.483L118.173 198.645C118.277 197.202 119.688 196.02 121.346 196.205C122.993 196.298 124.241 197.54 124.137 198.98L123.933 201.811C123.696 205.023 120.65 207.523 116.97 207.526Z" fill="#58595B"/>
<path id="Path_3" d="M122.246 190.515C122.19 190.515 122.131 190.515 122.079 190.508C121.387 190.458 120.74 190.097 120.281 189.503C119.823 188.909 119.59 188.132 119.634 187.341L120.052 179.719C120.14 178.074 121.402 176.724 122.825 176.928C123.516 176.978 124.162 177.339 124.62 177.933C125.078 178.527 125.31 179.304 125.266 180.094L124.848 187.716C124.761 189.286 123.624 190.51 122.246 190.515Z" fill="#58595B"/>
<path id="Path_4" d="M149.565 45.3608H8.43458C6.26946 45.3608 4.51428 43.6684 4.51428 41.5808V28.7285C4.51428 26.6409 6.26946 24.9485 8.43458 24.9485H149.565C151.731 24.9485 153.486 26.6409 153.486 28.7285V41.5808C153.486 43.6684 151.731 45.3608 149.565 45.3608Z" fill="white"/>
<path id="Path_5" d="M143.329 24.9484H14.6714L22.4293 10.1797C24.255 6.71536 27.9656 4.53188 32.0201 4.53608H125.984C130.045 4.53608 133.754 6.72096 135.571 10.1797L143.329 24.9484Z" fill="white"/>
<path id="Path_6" d="M136.105 170.103H23.0271L18.0571 90.7216H141.071L136.105 170.103Z" fill="white"/>
<path id="Path_7" d="M7.89999 29.4845H19.1857V43.0928H7.89999V29.4845Z" fill="#DCDCDC"/>
<path id="Path_8" d="M33.8571 6.80414C33.8182 6.85083 33.7793 6.94422 33.7793 6.99092L27.1635 22.6804H20.3143L25.1399 11.1935C26.3074 8.48516 28.6034 6.80414 31.133 6.80414H33.8571Z" fill="#DCDCDC"/>
<path id="Path_9" d="M139.943 27.2165H151.229V43.0928H139.943V27.2165Z" fill="#7D7D7D"/>
<path id="Path_10" d="M138.814 22.6804H131.965L125.349 6.99092C125.349 6.94422 125.31 6.85083 125.271 6.80414H127.996C130.486 6.80414 132.86 8.53185 133.989 11.1935L138.814 22.6804Z" fill="#7D7D7D"/>
<path id="Shape" fill-rule="evenodd" clip-rule="evenodd" d="M145.763 21.2144H150.1C154.457 21.2144 158 24.7423 158 29.0716V42.4287C158 46.758 154.457 50.2859 150.1 50.2859H147.039L144.657 88.0001L139.198 174.429H139.194L136.864 211.345C136.539 216.212 132.477 219.996 127.573 220H30.4308C25.525 220 21.459 216.218 21.1325 211.349L18.802 174.429L13.3431 88.0001L10.9613 50.2859H7.9C3.54315 50.2859 0 46.758 0 42.4287V29.0716C0 24.7423 3.54315 21.2144 7.9 21.2144H12.2292L18.9007 8.02624C21.3857 3.09183 26.4659 -0.0173763 32.0148 0.000173162H125.981C131.532 -0.0188702 136.614 3.09056 139.099 8.02624L145.763 21.2144ZM32.0147 7.85731C29.4314 7.85731 27.1089 9.27552 25.9555 11.5541L21.0772 21.2184H136.919L132.041 11.5541C130.887 9.2716 128.565 7.85731 125.981 7.85731H32.0147ZM133.273 142.937L131.772 166.571H26.228L24.5176 139.527L21.7566 95.8572H136.247L133.273 142.937ZM127.573 212.143C128.311 212.147 128.925 211.582 128.979 210.85L128.975 210.846L131.274 174.429H26.7178L29.0207 210.854C29.0766 211.584 29.6907 212.147 30.4268 212.143H127.573ZM136.741 88.004H21.2589L18.8731 50.2858H139.123L136.737 88.0001L136.741 88.004ZM7.9 42.4287H147.533H150.104L150.1 29.0716H7.9V42.4287Z" fill="#58595B"/>
</g>
<path id="PSL" fill-rule="evenodd" clip-rule="evenodd" d="M89.7176 119.36C89.0625 118.521 88.1371 117.82 86.9415 117.255C85.7458 116.691 84.542 116.408 83.33 116.408C82.6093 116.408 81.8887 116.497 81.168 116.675C80.4474 116.852 79.7923 117.126 79.2026 117.497C78.613 117.868 78.1298 118.352 77.7531 118.949C77.3764 119.546 77.1881 120.263 77.1881 121.102C77.1881 121.876 77.3519 122.537 77.6794 123.086C78.007 123.634 78.4574 124.102 79.0307 124.489C79.6039 124.876 80.3 125.215 81.1189 125.505C81.9378 125.796 82.8386 126.086 83.8214 126.376C84.9351 126.731 86.0898 127.134 87.2854 127.586C88.481 128.037 89.5784 128.634 90.5775 129.376C91.5766 130.118 92.3955 131.054 93.0342 132.183C93.673 133.312 93.9924 134.715 93.9924 136.392C93.9924 138.231 93.6484 139.836 92.9605 141.207C92.2726 142.578 91.3555 143.715 90.209 144.618C89.0625 145.521 87.7194 146.199 86.1799 146.65C84.6403 147.102 83.0188 147.328 81.3154 147.328C79.0552 147.328 76.8441 146.917 74.6822 146.094C72.5202 145.271 70.7513 144.054 69.3755 142.441L73.7977 138.376C74.6494 139.538 75.7877 140.457 77.2126 141.134C78.6376 141.812 80.0379 142.15 81.4137 142.15C82.1344 142.15 82.8714 142.062 83.6248 141.884C84.3782 141.707 85.0579 141.408 85.6639 140.989C86.2699 140.57 86.7613 140.046 87.138 139.417C87.5147 138.787 87.7031 138.005 87.7031 137.07C87.7031 136.167 87.4901 135.417 87.0643 134.82C86.6385 134.223 86.0652 133.707 85.3446 133.271C84.6239 132.836 83.7722 132.457 82.7895 132.134L79.694 131.118C78.6458 130.796 77.5975 130.408 76.5493 129.957C75.5011 129.505 74.5593 128.908 73.724 128.167C72.8887 127.425 72.209 126.513 71.6849 125.433C71.1608 124.352 70.8987 123.005 70.8987 121.392C70.8987 119.65 71.2673 118.15 72.0043 116.892C72.7413 115.634 73.7076 114.594 74.9033 113.771C76.0989 112.949 77.4583 112.336 78.9815 111.933C80.5047 111.529 82.0525 111.328 83.6248 111.328C85.3937 111.328 87.1871 111.634 89.0051 112.247C90.8232 112.86 92.4037 113.779 93.7467 115.005L89.7176 119.36ZM54.436 112.199H43.0857V146.457H49.2768V132.279H54.0429C55.8773 132.279 57.6134 132.102 59.2512 131.747C60.8891 131.392 62.3222 130.82 63.5506 130.029C64.779 129.239 65.7535 128.199 66.4742 126.908C67.1948 125.618 67.5551 124.021 67.5551 122.118C67.5551 120.344 67.2439 118.828 66.6216 117.57C65.9992 116.312 65.1147 115.279 63.9682 114.473C62.8217 113.667 61.446 113.086 59.8409 112.731C58.2358 112.376 56.4342 112.199 54.436 112.199ZM56.4997 126.933C55.5825 127.078 54.6161 127.15 53.6007 127.15H49.2768V117.328H53.7972C54.7472 117.328 55.6725 117.384 56.5734 117.497C57.4742 117.61 58.2767 117.844 58.981 118.199C59.6853 118.554 60.2503 119.046 60.6762 119.675C61.102 120.304 61.3149 121.118 61.3149 122.118C61.3149 123.15 61.102 123.989 60.6762 124.634C60.2503 125.279 59.6771 125.787 58.9564 126.158C58.2358 126.529 57.4169 126.787 56.4997 126.933ZM105.296 112.199H99.1049V146.457H120.086V141.037H105.296V112.199Z" fill="#58595B"/>
</g>
</svg>
